<?xml version="1.0" encoding="utf-8"?>
<svg xmlns="http://www.w3.org/2000/svg" xmlns:xlink="http://www.w3.org/1999/xlink" style="margin: auto; background: rgb(255, 255, 255); display: block; shape-rendering: auto;" width="44px" height="44px" viewBox="0 0 100 100" preserveAspectRatio="xMidYMid">
<g transform="translate(50 50)">
<g transform="rotate(26.881)">
<animateTransform attributeName="transform" type="rotate" values="0;45" keyTimes="0;1" dur="0.33003300330033003s" repeatCount="indefinite"></animateTransform><path d="M19.487175269905077 -4.5 L28.487175269905077 -4.5 L28.487175269905077 4.5 L19.487175269905077 4.5 A20 20 0 0 1 16.961494294860135 10.597533264181205 L16.961494294860135 10.597533264181205 L23.325455325539064 16.961494294860135 L16.961494294860135 23.325455325539064 L10.597533264181205 16.961494294860135 A20 20 0 0 1 4.5000000000000036 19.487175269905073 L4.5000000000000036 19.487175269905073 L4.500000000000004 28.487175269905073 L-4.5 28.487175269905077 L-4.500000000000001 19.487175269905077 A20 20 0 0 1 -10.597533264181202 16.961494294860135 L-10.597533264181202 16.961494294860135 L-16.96149429486013 23.325455325539064 L-23.32545532553906 16.961494294860135 L-16.961494294860135 10.597533264181205 A20 20 0 0 1 -19.487175269905073 4.500000000000005 L-19.487175269905073 4.500000000000005 L-28.487175269905073 4.500000000000006 L-28.487175269905077 -4.499999999999999 L-19.487175269905077 -4.5 A20 20 0 0 1 -16.961494294860135 -10.5975332641812 L-16.961494294860135 -10.5975332641812 L-23.325455325539064 -16.961494294860124 L-16.961494294860135 -23.32545532553906 L-10.597533264181205 -16.961494294860135 A20 20 0 0 1 -4.500000000000006 -19.487175269905073 L-4.500000000000006 -19.487175269905073 L-4.500000000000008 -28.487175269905073 L4.499999999999997 -28.487175269905077 L4.499999999999999 -19.487175269905077 A20 20 0 0 1 10.5975332641812 -16.961494294860138 L10.5975332641812 -16.961494294860138 L16.961494294860124 -23.325455325539068 L23.325455325539057 -16.961494294860138 L16.96149429486013 -10.597533264181207 A20 20 0 0 1 19.487175269905073 -4.500000000000007 M0 -24A24 24 0 1 0 0 24 A24 24 0 1 0 0 -24" fill="#1a2eb0"></path></g></g>
<!-- [ldio] generated by https://loading.io/ --></svg>