<svg width="104" height="105" viewBox="0 0 104 105" fill="none" xmlns="http://www.w3.org/2000/svg">
<path d="M0.424931 46.5962L14.6243 5.26235C16.0283 1.17381 20.4776 -0.974456 24.5629 0.429556L93.691 24.1743C97.7795 25.5783 99.97 30.0081 98.566 34.0966L84.3666 75.4304C82.9626 79.519 78.5133 81.6672 74.4248 80.2632L5.29672 56.5185C1.21144 55.1145 -0.979081 50.6847 0.424931 46.5962Z" fill="url(#paint0_linear)"/>
<path d="M86.0544 70.5343L89.7102 59.892L5.75863 31.053L2.10279 41.6954L86.0544 70.5343Z" fill="#3E4347"/>
<path d="M84.1511 42.9199L85.0645 40.2615L59.1125 31.3456L58.1992 34.004L84.1511 42.9199Z" fill="white"/>
<path d="M86.3203 36.6014L87.2336 33.943L61.2817 25.0271L60.3684 27.6855L86.3203 36.6014Z" fill="white"/>
<path d="M39.9775 17.8173L36.9582 26.6086C36.6007 27.6519 35.4827 28.1979 34.4687 27.8501L22.7296 23.8168C21.7156 23.4691 21.1696 22.3543 21.5303 21.3078L24.5496 12.5165C24.9071 11.47 26.0251 10.9272 27.0684 11.2847L38.749 15.2953C39.7922 15.656 40.3382 16.7708 39.9775 17.8173Z" fill="#E9EFF4"/>
<path d="M39.9776 17.8171L36.9583 26.6084C36.6008 27.6517 35.4828 28.1977 34.4688 27.8499L22.7297 23.8166C21.8067 23.4981 21.2997 22.5686 21.4525 21.6261C29.6458 23.8914 37.3191 21.8536 39.0611 16.7803C39.1879 16.4098 39.2854 16.0328 39.3179 15.6331C39.9744 16.1303 40.2636 16.9851 39.9776 17.8171Z" fill="#DEE4E9"/>
<path d="M39.0024 20.6577L39.3729 19.582L34.0169 17.7424C34.1274 16.7479 33.6756 15.8087 32.8274 15.2789L33.4449 13.4752L32.3724 13.1079L31.7516 14.9084C30.7571 14.8044 29.8211 15.2659 29.2946 16.1207L23.9418 14.2812L23.5713 15.3569L28.8201 17.1607L27.7541 20.271L22.502 18.4672L22.1348 19.543L27.4876 21.3825C27.3771 22.377 27.8321 23.3195 28.6836 23.846L28.0661 25.6465L29.1418 26.017L29.7626 24.2133C30.7506 24.3173 31.6866 23.8558 32.2098 23.0042L37.5659 24.8438L37.9364 23.768L32.6876 21.9642L33.7569 18.854L39.0024 20.6577ZM31.4201 22.1495C31.1568 22.9165 30.3183 23.326 29.5513 23.066H29.5481C28.7811 22.8027 28.3748 21.9642 28.6381 21.1972L30.0876 16.9787C30.3508 16.2084 31.1893 15.7957 31.9563 16.0589C32.7234 16.3222 33.1329 17.1607 32.8696 17.9277L31.4201 22.1495Z" fill="#BBC7D1"/>
<g opacity="0.2">
<path opacity="0.2" d="M35.4896 15.279C34.2643 18.8443 28.4988 20.1281 22.6162 18.1423L24.55 12.5165C24.9075 11.47 26.0255 10.9272 27.0687 11.2847L35.7073 14.252C35.6813 14.6225 35.6066 14.941 35.4896 15.279Z" fill="white"/>
</g>
<path d="M104 52.4949V96.2012C104 100.524 100.49 104.001 96.1674 104.001H23.0743C18.7517 104.001 15.2417 100.524 15.2417 96.2012V52.4949C15.2417 48.1724 18.7517 44.6948 23.0743 44.6948H96.1674C100.49 44.6948 104 48.1724 104 52.4949Z" fill="url(#paint1_linear)"/>
<path d="M93.2361 87.9237C93.2361 92.0252 89.9341 95.3565 85.8293 95.3565C81.7018 95.3565 78.3965 92.0252 78.3965 87.9237C78.3965 83.7929 81.7018 80.4908 85.8293 80.4908C89.9308 80.4908 93.2361 83.7929 93.2361 87.9237Z" fill="#E24B4B"/>
<path d="M84.2333 87.9237C84.2333 92.0252 80.9313 95.3565 76.8298 95.3565C72.699 95.3565 69.397 92.0252 69.397 87.9237C69.397 83.7929 72.699 80.4908 76.8298 80.4908C80.9313 80.4908 84.2333 83.7929 84.2333 87.9237Z" fill="#FFD93B"/>
<path d="M53.4427 81.8688H25.9995V85.4601H53.4427V81.8688Z" fill="white"/>
<path d="M53.4425 90.3871H25.9993V93.9784H53.4425V90.3871Z" fill="white"/>
<path d="M104 57.6787H15.2417V68.9303H104V57.6787Z" fill="#5A5F63"/>
<path d="M99.053 57.6787C97.0543 61.595 94.5907 65.3715 91.6267 68.9303H104V57.6787H99.053Z" fill="#3E4347"/>
<path d="M93.2361 87.9237C93.2361 92.0252 89.9341 95.3565 85.8293 95.3565C81.7018 95.3565 78.3965 92.0252 78.3965 87.9237C78.3965 83.7929 81.7018 80.4908 85.8293 80.4908C89.9308 80.4908 93.2361 83.7929 93.2361 87.9237Z" fill="#D03F3F"/>
<path d="M76.8298 95.3563C80.9313 95.3563 84.2333 92.025 84.2333 87.9235C84.2333 84.5694 82.0396 81.7939 79.0203 80.8579C76.0335 83.1394 72.8355 85.2585 69.4652 87.2247C69.4425 87.4587 69.397 87.683 69.397 87.9235C69.397 92.025 72.699 95.3563 76.8298 95.3563Z" fill="#F4C534"/>
<defs>
<linearGradient id="paint0_linear" x1="49.8862" y1="23.6748" x2="49.8862" y2="56.6504" gradientUnits="userSpaceOnUse">
<stop stop-color="#59A5E0"/>
<stop offset="1" stop-color="#236DA7"/>
</linearGradient>
<linearGradient id="paint1_linear" x1="59.6208" y1="44.6948" x2="59.6208" y2="104.001" gradientUnits="userSpaceOnUse">
<stop stop-color="#65B1EF"/>
<stop offset="1" stop-color="#3373A7"/>
</linearGradient>
</defs>
</svg>
